<?xml version="1.0" encoding="UTF-8"?>
<svg id="Camada_1" data-name="Camada 1" xmlns="http://www.w3.org/2000/svg" viewBox="0 0 19.34 12.51">
  <defs>
    <style>
      .cls-1 {
        fill: #fff;
      }
    </style>
  </defs>
  <g>
    <path d="M18.73.5h-3.99c-.59.09-1.03,1.06-1.34,1.71-.25.52-.48,1.07-.73,1.59-.16-.23-.28-.51-.48-.69v.36s.07.06.1.1c.21.39.26.85.35,1.3l.51-.51s.12-.33.18-.32c.41-.04.87.05,1.28,0,.22-.03.44-.15.45-.52.51-.12,1.33.34,1.59-.52.28,0,.64.03.81-.37.06-.14.07-.52-.05-.52h-3.2c0-.1.06-.16.12-.16h3.51c.13,0,.3-.09.38-.24.06-.11.05-.27.07-.31.01-.03.34-.15.44-.33.09-.16.15-.44,0-.55ZM14.65,3.68h-1.21s.05-.16.05-.16h1.33s-.16.16-.18.16ZM16.15,3.16h-2.43v-.06s.06-.1.07-.1h2.57c0,.07-.17.16-.2.16ZM17.22,2.47s-.16.16-.18.16h-3.09s.05-.16.07-.16h3.2ZM14.13,1.57c-.35.76-.78,1.78-1.16,2.47-.03.06-.06.14-.12.12.3-.73.63-1.5.98-2.19.12-.24.24-.49.4-.67,0,.1-.07.19-.1.27ZM17.89,1.58h-3.47s.05-.16.05-.16h3.56c0,.05-.14.16-.15.16ZM18.33,1.02h-3.66l.12-.12c1.18.04,2.37-.04,3.54,0,.05,0,.09-.04.14-.05.02.05-.13.16-.14.16Z"/>
    <path class="cls-1" d="M18.04,1.42c0,.05-.14.16-.15.16h-3.47s.05-.16.05-.16h3.56Z"/>
    <path class="cls-1" d="M17.22,2.47s-.16.16-.18.16h-3.09s.05-.16.07-.16h3.2Z"/>
    <path class="cls-1" d="M14.67,1.02l.12-.12c1.18.04,2.37-.04,3.54,0,.05,0,.09-.04.14-.05.02.05-.13.16-.14.16h-3.66Z"/>
    <path class="cls-1" d="M16.35,3c0,.07-.17.16-.2.16h-2.43v-.06s.06-.1.07-.1h2.57Z"/>
    <path class="cls-1" d="M12.84,4.17c.3-.73.63-1.5.98-2.19.12-.24.24-.49.4-.67,0,.1-.07.19-.1.27-.35.76-.78,1.78-1.16,2.47-.03.06-.06.14-.12.12Z"/>
    <path class="cls-1" d="M14.83,3.52s-.16.16-.18.16h-1.21s.05-.16.05-.16h1.33Z"/>
  </g>
  <g>
    <path d="M13.73,12.07c-.26-.22-.36-.55-.53-.84-.46-.77-1.2-1.61-2.06-1.96-.37.16-.72.32-1.13.37-.07.66.08,1.25.3,1.86.05.14.31.53.04.57-.09.01-.81,0-.86-.01-.14-.14-.16-.34-.24-.51-.32-.71-.64-1.41-1.11-2.04l-1.22-.51c-.24.35-.63.5-1.06.45-.11-.01-.37-.16-.43-.11-.02.02-.09.18-.1.21-.17.65.69,1.71.88,2.33.01.05.03.12,0,.16-.12.1-.23.02-.35.02-.21,0-.41.01-.62.02-.05-.01-.09-.1-.12-.15-.48-.74-.84-1.56-1.22-2.35l-.24-.77c-.26.32-.51.61-.61,1.02-.08.34-.1.71-.05,1.05.05.38.2.73.28,1.1-.02.02-.04.06-.07.07-.06.03-.88.03-.99.02-.1-.01-.12-.06-.15-.15-.21-.64-.17-1.9-.19-2.61-.02-.65-.02-1.29-.02-1.93,0-.14-.05-.29-.03-.43-.55-.07-.92-.53-1.14-.99-.14-.31-.23-.6-.13-.93.03-.1.17-.28.17-.33,0-.04-.16-.16-.18-.29-.1-.55.31-1.14.78-1.42-.16-.11-.16-.41-.11-.58.1-.33.45-.44.62-.66.09-.11.07-.28.26-.25.11.02.33.32.37.43.12.27.11.64-.04.9-.36.64-1.43.34-1.52,1.35-.04.48.24.18.49.08.91-.37,1.83-.23,2.73.07.94-.04,1.92.05,2.86,0,.11,0,.47-.03.54-.08l.03-.03.18-.89c-.38,0-.97-.08-1.13-.48-.14-.36.28-.52.26-.55-.25-.06-.49-.24-.58-.48-.14-.35.03-.57.14-.9.04-.12.05-.45.22-.47.26-.03.22.38.26.53.07.24.32.38.56.41.88.12,1.97-.11,2.88-.02h.42c-.16-.16-.65-.74-.34-.92.19-.11.24.09.31.17.39.43.79.22,1.24.46.42.22.63.67.31,1.07.67.25.62.73,0,1,.22.26.4.56.55.87.36.76.62,1.56.57,2.41-.01.23-.09.46-.11.69-.12,1.45.45,2.85,1.03,4.15.08.18.32.57.35.72,0,.04,0,.07-.02.11h-.94ZM10.92,2.09c.26.04,1.1,0,1.11-.35.01-.29-.5-.42-.74-.43.09.11.68.28.41.46-.19.12-.71-.06-.95.04,0,.05.05,0,.08.04.04.04.06.23.08.24ZM8.22,1.78c-.37.03-.88.1-1.19-.12-.04-.03-.32-.34-.36-.3-.03.23.04.39.24.52.36.24.72.2,1.13.19l.18-.29ZM8.06,3.92h.65c.09-.65.24-1.35.86-1.71.36-.21.7-.15,1.1-.14-.03-.1-.05-.18.03-.26l-1.59-.05c-.7-.03-.79.76-.9,1.27-.06.3-.1.6-.15.9ZM1.53,2.94c.5-.07.84-.5.53-.95l-.43.5-.1.45ZM9.34,4.68c.91-.21,1.49-.75,1.42-1.7,0-.11-.09-.48-.19-.53-.06-.03-.39-.02-.47-.01-.32.04-.67.38-.79.66-.06.14-.22.78-.2.91,0,.07.14.23.18.33s.06.23.07.34ZM7.92,2.47c-.29.03-.58.05-.85.16-.07.04.05.13.08.16.19.12.46.11.67.11l.1-.42ZM11.88,2.47c-.26-.03-.56.02-.83,0,.08.16.01.43.23.45.33.03.85-.03,1.07-.28,0-.06-.41-.16-.48-.17ZM12.36,3.84v.62c0,.38-.53,1.19-.82,1.45-.42.38-1.29.65-1.86.59-.23-.02-.48-.15-.72-.18-.11,0-.03-.22,0-.24.01,0,.25-.03.28-.03.09,0,.21.05.3.05.87.04,1.7-.2,2.16-.97.36-.6.36-1.21.2-1.87l-.33.04c0,.07.07.08.08.15.16.83-.66,2.08-1.56,2.15-.38.03-.8-.07-1.01-.4-.42.11-.9.16-1.25-.16-.11-.1-.17-.3-.25-.37-.03-.02-.04-.04-.08-.02-.13.03-.18.42-.2.55-.05.3-.09.69-.09,1,0,.16.14.24.29.27.17.03.16-.09.35-.12.55-.08,1.01.18,1.39.53.14.13.36.48.54.51.12.02.4-.03.52-.06,1.44-.28,2.55-1.43,2.31-2.9l-.27-.6ZM11.51,3.34l-.35-.03c-.04.62-.52,1.3-1.11,1.55-.19.08-.37.09-.55.15-.03,0-.15.05-.11.09.38.12.65.18,1.03.01.43-.19.82-.71.94-1.14.06-.21.06-.43.14-.64ZM7.95,4.31c0,.15.12.47.28.53.09.03.53.04.6,0,.13-.08.05-.33,0-.44-.12-.22-.65-.04-.88-.09ZM3.52,4.55c-.53-.16-1.22-.21-1.75-.02-.18.06-.33.18-.49.26s-.24.02-.31.23c-.11.32-.02.61.14.9.15.27.42.59.75.63.1-.67.48-1.32,1.07-1.7l.59-.31ZM6.94,4.68h-2.18c.12.09.28.14.43.21.24.12.71.35.92.51.25.19.38.52.73.63l.11-1.35ZM2.27,6.66h.45c.59,0,1.42-.56,2.03-.69.44-.1.88-.11,1.33-.07-.1-.13-.26-.23-.4-.31-.58-.34-1.46-.75-2.14-.58s-1.29.98-1.27,1.66ZM9.85,7.77c.01.05.06.04.1.05.64.16,1.72.41,2.3-.02.71-.52.91-1.55.74-2.36l-.26.58c-.29.49-.66.95-1.17,1.24s-1.11.45-1.7.5ZM2.88,7.03c-.21.02-.45-.02-.67,0l-.03,1.25s.2.07.26.07c.35.03,1.02-.05,1.35-.17s.64-.45.93-.66c.62-.44,1.26-.78,2.01-.97.01-.01-.1-.11-.13-.13-.48-.28-1.57-.17-2.09,0s-1.06.55-1.63.61ZM9.04,7.24c.06-.06-.29-.3-.35-.34-.32-.2-.64-.28-1.01-.32.04.06.12.12.18.15.16.1.48.26.66.34.17.07.34.13.52.17ZM4.75,7.98c.23,0,.47,0,.71,0,.14,0,.54.14.69.2.55.21,1.03.59,1.61.73-.48-.54-.73-1.28-.85-1.98-.63.1-1.31.41-1.83.77-.12.09-.23.21-.37.26v.04s.03-.01.04-.01ZM9.36,7.78c-.74-.13-1.36-.56-2.06-.8.19.67.45,1.48.95,1.99.19.19.43.23.7.27.1.01.6.07.65,0,0-.5-.05-1.01-.24-1.47ZM13.8,10.99c-.31-.67-.61-1.37-.73-2.1-.06-.36-.06-.74-.11-1.11,0-.04,0-.07-.04-.09-.27.37-.59.71-.94,1.02-.07.06-.33.23-.37.28-.02.03-.02.05-.01.08.5.22.88.64,1.24,1.03.14.16.68.86.84.9.04,0,.08,0,.12,0ZM11.76,8.35c-.6.03-1.32.12-1.82-.26l.05,1.19c.66-.17,1.31-.41,1.77-.92ZM4.44,8.38l-.14-.07c-.05.06-.16.09-.18.17,0,.04.06.06.04.11l-.08-.05c-.04.49.2.96.4,1.39.17.37.38.73.58,1.09l.27-.02c-.25-.5-.56-1.06-.33-1.63.04-.11.18-.26.16-.36-.03-.17-.26-.46-.3-.65l-.41-.03-.02.05ZM5.31,8.38c.07.6.87,1,1.28.44-.4-.19-.82-.39-1.28-.44ZM3.33,8.64c-.36.07-.72.13-1.09.08l.11,2.27.3-.03c-.08-.22-.07-.54-.06-.78.05-.61.35-1.09.74-1.54ZM9.61,9.64c-.31,0-.62,0-.92-.05l.77,1.4c.06,0,.24.02.26-.04,0-.03-.04-.1-.05-.14-.06-.39-.07-.78-.06-1.17ZM9.8,11.31c-.06,0-.14-.02-.19.04.11.19.08.44.38.41l-.19-.44ZM2.67,11.34h-.27s.05.37.05.37l.35.03-.14-.39ZM5.5,11.34s-.2-.03-.18.03c.04.15.19.4.38.38.02-.03-.17-.4-.2-.42ZM14.15,11.73c-.04-.08-.23-.51-.35-.4.07.16.13.42.35.4Z"/>
    <path class="cls-1" d="M12.36,3.84l.27.6c.25,1.47-.87,2.61-2.31,2.9-.13.03-.4.08-.52.06-.18-.03-.39-.38-.54-.51-.38-.35-.84-.61-1.39-.53-.19.03-.18.15-.35.12-.15-.03-.29-.11-.29-.27,0-.3.04-.7.09-1,.02-.12.07-.51.2-.55.04-.01.05,0,.08.02.08.06.14.27.25.37.34.32.83.27,1.25.16.21.32.63.43,1.01.4.9-.07,1.72-1.32,1.56-2.15-.01-.07-.09-.08-.08-.15l.33-.04c.17.66.16,1.27-.2,1.87-.45.77-1.28,1.01-2.16.97-.09,0-.21-.05-.3-.05-.03,0-.27.02-.28.03-.02.02-.11.23,0,.24.24.02.49.15.72.18.57.06,1.44-.21,1.86-.59.29-.26.82-1.07.82-1.45v-.62Z"/>
    <path class="cls-1" d="M2.88,7.03c.57-.06,1.1-.44,1.63-.61s1.61-.28,2.09,0c.03.02.14.11.13.13-.75.19-1.39.52-2.01.97-.29.21-.59.53-.93.66s-.99.2-1.35.17c-.06,0-.24-.02-.26-.07l.03-1.25c.21-.02.46.02.67,0Z"/>
    <path class="cls-1" d="M2.27,6.66c-.02-.68.58-1.49,1.27-1.66s1.56.25,2.14.58c.14.08.3.18.4.31-.45-.04-.88-.03-1.33.07-.62.14-1.44.69-2.03.69h-.45Z"/>
    <path class="cls-1" d="M9.36,7.78c.19.46.24.98.24,1.47-.04.06-.55,0-.65,0-.27-.04-.51-.08-.7-.27-.5-.51-.76-1.33-.95-1.99.7.24,1.32.66,2.06.8Z"/>
    <path class="cls-1" d="M3.52,4.55l-.59.31c-.59.37-.97,1.02-1.07,1.7-.33-.04-.6-.36-.75-.63-.16-.29-.25-.58-.14-.9.07-.21.15-.15.31-.23s.32-.2.49-.26c.53-.18,1.22-.14,1.75.02Z"/>
    <path class="cls-1" d="M9.34,4.68c-.01-.11-.03-.24-.07-.34s-.17-.26-.18-.33c-.01-.14.14-.77.2-.91.12-.28.47-.62.79-.66.08-.01.41-.02.47.01.1.04.18.42.19.53.08.96-.51,1.49-1.42,1.7ZM10.25,3.17c.13-.13.07-.38-.12-.43-.26-.06-.46.2-.29.41.09.11.31.12.41.02Z"/>
    <path class="cls-1" d="M13.8,10.99s-.08,0-.12,0c-.16-.03-.7-.74-.84-.9-.35-.39-.74-.81-1.24-1.03,0-.03,0-.05.01-.08.03-.05.3-.21.37-.28.35-.3.67-.65.94-1.02.04.03.04.05.04.09.05.36.05.74.11,1.11.12.73.42,1.44.73,2.1Z"/>
    <path class="cls-1" d="M4.75,7.98s-.04.05-.04.01v-.04c.14-.05.25-.17.37-.26.52-.36,1.2-.67,1.83-.77.12.7.37,1.43.85,1.98-.58-.13-1.05-.52-1.61-.73-.15-.06-.55-.2-.69-.2-.23,0-.47,0-.71,0Z"/>
    <path class="cls-1" d="M9.85,7.77c.59-.05,1.19-.2,1.7-.5s.87-.76,1.17-1.24l.26-.58c.17.81-.03,1.84-.74,2.36-.57.42-1.65.17-2.3.02-.04,0-.08,0-.1-.05Z"/>
    <path class="cls-1" d="M8.06,3.92c.05-.3.09-.6.15-.9.1-.51.19-1.3.9-1.27l1.59.05c-.08.09-.06.16-.03.26-.4-.01-.73-.07-1.1.14-.62.36-.77,1.06-.86,1.71h-.65Z"/>
    <path class="cls-1" d="M4.44,8.38l.02-.05.41.03c.04.19.27.48.3.65.02.1-.12.25-.16.36-.23.57.08,1.12.33,1.63l-.27.02c-.19-.36-.41-.72-.58-1.09-.2-.43-.44-.9-.4-1.39l.08.05c.02-.05-.05-.07-.04-.11.02-.08.13-.11.18-.17l.14.07Z"/>
    <path class="cls-1" d="M6.94,4.68l-.11,1.35c-.34-.11-.48-.43-.73-.63-.2-.16-.67-.39-.92-.51-.14-.07-.3-.11-.43-.21h2.18Z"/>
    <path class="cls-1" d="M11.76,8.35c-.46.51-1.1.75-1.77.92l-.05-1.19c.51.38,1.22.29,1.82.26Z"/>
    <path class="cls-1" d="M3.33,8.64c-.39.45-.69.94-.74,1.54-.02.24-.02.56.06.78l-.3.03-.11-2.27c.37.05.73,0,1.09-.08Z"/>
    <path class="cls-1" d="M11.51,3.34c-.08.2-.08.43-.14.64-.12.43-.52.95-.94,1.14-.38.17-.65.11-1.03-.01-.04-.04.08-.08.11-.09.18-.06.37-.07.55-.15.59-.26,1.07-.93,1.11-1.55l.35.03Z"/>
    <path class="cls-1" d="M9.61,9.64c-.01.39,0,.78.06,1.17,0,.04.05.11.05.14-.02.07-.2.04-.26.04l-.77-1.4c.31.06.61.06.92.05Z"/>
    <path class="cls-1" d="M5.31,8.38c.45.04.87.24,1.28.44-.4.56-1.21.16-1.28-.44Z"/>
    <path class="cls-1" d="M11.88,2.47c.07,0,.47.12.48.17-.23.25-.75.31-1.07.28-.22-.02-.16-.29-.23-.45.27.02.57-.03.83,0Z"/>
    <path class="cls-1" d="M10.92,2.09s-.05-.2-.08-.24c-.03-.04-.09,0-.08-.04.24-.1.77.08.95-.04.27-.18-.32-.36-.41-.46.23.02.75.14.74.43-.02.36-.85.39-1.11.35Z"/>
    <path class="cls-1" d="M8.22,1.78l-.18.29c-.41,0-.78.06-1.13-.19-.19-.13-.26-.29-.24-.52.03-.04.31.27.36.3.31.22.83.15,1.19.12Z"/>
    <path class="cls-1" d="M7.95,4.31c.22.05.75-.13.88.09.06.11.13.36,0,.44-.08.05-.51.04-.6,0-.16-.06-.27-.38-.28-.53ZM8.56,4.43c-.25,0-.12.38.13.3.06-.03.09-.12.07-.19-.03-.07-.12-.11-.2-.11Z"/>
    <path class="cls-1" d="M1.53,2.94l.1-.45.43-.5c.31.45-.03.88-.53.95Z"/>
    <path class="cls-1" d="M7.92,2.47l-.1.42c-.22,0-.49.01-.67-.11-.04-.03-.15-.11-.08-.16.27-.11.56-.13.85-.16Z"/>
    <path class="cls-1" d="M9.04,7.24c-.18-.04-.35-.1-.52-.17-.18-.08-.5-.23-.66-.34-.06-.04-.14-.1-.18-.15.38.04.69.12,1.01.32.05.03.41.28.35.34Z"/>
    <polygon class="cls-1" points="2.67 11.34 2.81 11.73 2.46 11.7 2.4 11.33 2.67 11.34"/>
    <path class="cls-1" d="M9.8,11.31l.19.44c-.3.03-.27-.22-.38-.41.04-.06.12-.05.19-.04Z"/>
    <path class="cls-1" d="M5.5,11.34s.22.39.2.42c-.19.01-.34-.24-.38-.38-.02-.06.16-.05.18-.03Z"/>
    <path class="cls-1" d="M14.15,11.73c-.23.02-.29-.23-.35-.4.13-.11.32.32.35.4Z"/>
    <path d="M10.25,3.17c-.1.1-.32.09-.41-.02-.17-.2.03-.47.29-.41.2.05.26.3.12.43Z"/>
    <path d="M8.56,4.43c.08,0,.17.04.2.11.02.06,0,.15-.07.19-.25.08-.39-.29-.13-.3Z"/>
  </g>
</svg>